<svg width="15" height="24" viewBox="0 0 15 24" fill="none" xmlns="http://www.w3.org/2000/svg">
<g clip-path="url(#clip0_70_505)">
<path d="M14.5595 7.05938C15.1454 6.47344 15.1454 5.52188 14.5595 4.93594C13.9735 4.35001 13.022 4.35001 12.436 4.93594L7.5001 9.87657L2.55947 4.94063C1.97354 4.35469 1.02197 4.35469 0.436035 4.94063C-0.149902 5.52657 -0.149902 6.47813 0.436035 7.06407L5.37666 12L0.440723 16.9406C-0.145215 17.5266 -0.145215 18.4781 0.440723 19.0641C1.02666 19.65 1.97822 19.65 2.56416 19.0641L7.5001 14.1234L12.4407 19.0594C13.0267 19.6453 13.9782 19.6453 14.5642 19.0594C15.1501 18.4734 15.1501 17.5219 14.5642 16.9359L9.62354 12L14.5595 7.05938Z" fill="#DEE0E4"/>
</g>
<defs>
<clipPath id="clip0_70_505">
<rect width="15" height="24" fill="white"/>
</clipPath>
</defs>
</svg>
