<svg width="33" height="27" viewBox="0 0 33 27" fill="none" xmlns="http://www.w3.org/2000/svg">
<g clip-path="url(#clip0_6_57)">
<path d="M15.907 6.9764C16.2731 6.65156 16.4175 6.14109 16.2267 5.68734C16.1081 5.41406 15.9792 5.14594 15.8348 4.88812L15.675 4.60969C15.5203 4.35187 15.3501 4.09922 15.1696 3.85687C14.8757 3.465 14.3601 3.33609 13.8961 3.49078L12.442 3.97031C11.8903 3.51656 11.2561 3.14531 10.5754 2.89265L10.2609 1.39734C10.1629 0.917811 9.79168 0.536248 9.30699 0.47953C8.95636 0.433123 8.60574 0.412498 8.24996 0.412498C7.89418 0.412498 7.54355 0.433123 7.19808 0.474373C6.7134 0.531092 6.34215 0.917811 6.24418 1.39219L5.92965 2.89265C5.24386 3.15047 4.6148 3.51656 4.06308 3.97031L2.60386 3.49594C2.1398 3.34125 1.62418 3.47015 1.33027 3.86203C1.1498 4.10437 0.979645 4.35703 0.819801 4.61484L0.665114 4.88812C0.520739 5.14594 0.391832 5.41406 0.273239 5.6925C0.0824574 6.14109 0.226832 6.65156 0.592926 6.98156L1.73761 8.0025C1.68089 8.34797 1.64996 8.7089 1.64996 9.075C1.64996 9.44109 1.68089 9.80203 1.73761 10.1527L0.592926 11.1736C0.226832 11.4984 0.0824574 12.0089 0.273239 12.4627C0.391832 12.7359 0.520739 13.0041 0.665114 13.267L0.819801 13.5352C0.974489 13.7981 1.14464 14.0456 1.33027 14.288C1.62418 14.6798 2.1398 14.8087 2.60386 14.6541L4.05793 14.1745C4.60965 14.6283 5.24386 14.9995 5.92449 15.2522L6.23902 16.7527C6.33699 17.2322 6.70824 17.6137 7.19293 17.6705C7.5384 17.7117 7.88902 17.7323 8.2448 17.7323C8.60058 17.7323 8.95121 17.7117 9.29668 17.6705C9.78136 17.6137 10.1526 17.227 10.2506 16.7527L10.5651 15.2522C11.2509 14.9944 11.88 14.6283 12.4317 14.1745L13.8857 14.6541C14.3498 14.8087 14.8654 14.6798 15.1593 14.288C15.3398 14.0456 15.51 13.7981 15.6646 13.5352L15.8245 13.2567C15.9689 12.9989 16.0978 12.7308 16.2164 12.4575C16.4071 12.0089 16.2628 11.4984 15.8967 11.1684L14.752 10.1475C14.8087 9.79687 14.8396 9.43594 14.8396 9.06984C14.8396 8.70375 14.8087 8.34281 14.752 7.99219L15.8967 6.97125L15.907 6.9764ZM10.725 9.075C10.725 10.4414 9.61636 11.55 8.24996 11.55C6.88355 11.55 5.77496 10.4414 5.77496 9.075C5.77496 7.70859 6.88355 6.6 8.24996 6.6C9.61636 6.6 10.725 7.70859 10.725 9.075ZM26.0236 25.807C26.3484 26.1731 26.8589 26.3175 27.3126 26.1267C27.5859 26.0081 27.854 25.8792 28.1118 25.7348L28.3903 25.575C28.6481 25.4203 28.9007 25.2502 29.1431 25.0697C29.535 24.7758 29.6639 24.2602 29.5092 23.7961L29.0296 22.342C29.4834 21.7903 29.8546 21.1561 30.1073 20.4755L31.6078 20.1609C32.0873 20.063 32.4689 19.6917 32.5256 19.207C32.5668 18.8616 32.5875 18.5109 32.5875 18.1552C32.5875 17.7994 32.5668 17.4487 32.5256 17.1033C32.4689 16.6186 32.0821 16.2473 31.6078 16.1494L30.1073 15.8297C29.8495 15.1439 29.4834 14.5148 29.0296 13.9631L29.5092 12.5091C29.6639 12.045 29.535 11.5294 29.1431 11.2355C28.9007 11.055 28.6481 10.8848 28.3903 10.725L28.117 10.5703C27.8592 10.4259 27.5911 10.297 27.3126 10.1784C26.864 9.98765 26.3536 10.132 26.0236 10.4981L25.0026 11.6428C24.652 11.5861 24.2911 11.5552 23.925 11.5552C23.5589 11.5552 23.1979 11.5861 22.8473 11.6428L21.8264 10.4981C21.5015 10.132 20.9911 9.98765 20.5373 10.1784C20.264 10.297 19.9959 10.4259 19.7329 10.5703L19.4648 10.725C19.2018 10.8797 18.9543 11.0498 18.712 11.2355C18.3201 11.5294 18.1912 12.045 18.3459 12.5091L18.8254 13.9631C18.3717 14.5148 18.0004 15.1491 17.7478 15.8297L16.2473 16.1391C15.7678 16.237 15.3862 16.6083 15.3295 17.093C15.2882 17.4384 15.2676 17.7891 15.2676 18.1448C15.2676 18.5006 15.2882 18.8512 15.3295 19.1967C15.3862 19.6814 15.7729 20.0527 16.2473 20.1506L17.7478 20.4652C18.0056 21.1509 18.3717 21.78 18.8254 22.3317L18.3459 23.7858C18.1912 24.2498 18.3201 24.7655 18.712 25.0594C18.9543 25.2398 19.2018 25.41 19.4648 25.5647L19.7432 25.7245C20.0011 25.8689 20.2692 25.9978 20.5425 26.1164C20.9911 26.3072 21.5015 26.1628 21.8315 25.7967L22.8525 24.652C23.2031 24.7087 23.564 24.7397 23.9301 24.7397C24.2962 24.7397 24.6571 24.7087 25.0078 24.652L26.0287 25.7967L26.0236 25.807ZM23.925 20.625C22.5586 20.625 21.45 19.5164 21.45 18.15C21.45 16.7836 22.5586 15.675 23.925 15.675C25.2914 15.675 26.4 16.7836 26.4 18.15C26.4 19.5164 25.2914 20.625 23.925 20.625Z" fill="#9399A2"/>
</g>
<defs>
<clipPath id="clip0_6_57">
<rect width="33" height="26.4" fill="white"/>
</clipPath>
</defs>
</svg>
