<svg width="33" height="27" viewBox="0 0 33 27" fill="none" xmlns="http://www.w3.org/2000/svg">
<g clip-path="url(#clip0_6_51)">
<path d="M7.11047 0.154684C6.87843 -0.0103159 6.57937 -0.0464096 6.3164 0.0618716C6.05343 0.170153 5.86265 0.40734 5.81625 0.690934L5.08922 5.08922L0.690934 5.81625C0.40734 5.86265 0.170153 6.05343 0.0618716 6.3164C-0.0464096 6.57937 -0.0103159 6.87843 0.154684 7.11047L2.74828 10.7353L0.154684 14.3602C-0.0103159 14.5922 -0.0464096 14.8912 0.0618716 15.1542C0.170153 15.4172 0.40734 15.608 0.690934 15.6544L5.08922 16.3814L5.81625 20.7797C5.86265 21.0633 6.05343 21.3005 6.3164 21.4087C6.57937 21.517 6.87843 21.4809 7.11047 21.3159L9.95672 19.2792C8.93062 18.15 8.29125 16.6598 8.25 15.0202C7.3425 14.4942 6.58968 13.6744 6.15656 12.6328C5.10984 10.1062 6.31125 7.21359 8.83781 6.16687C10.3537 5.53781 12.0037 5.71828 13.3083 6.51234C13.9837 5.38828 14.9841 4.48078 16.1855 3.91875L15.6544 0.690934C15.608 0.40734 15.4172 0.170153 15.1542 0.0618716C14.8912 -0.0464096 14.587 -0.0103159 14.3602 0.154684L10.7353 2.74828L7.11047 0.154684ZM15.0253 21.4448C14.8964 21.4758 14.7623 21.4758 14.6334 21.4397C14.7056 21.4397 14.7778 21.4448 14.85 21.4448H15.0305H15.0253ZM12.638 8.03859C11.7459 7.40953 10.5548 7.23422 9.46687 7.68281C7.78078 8.3789 6.98156 10.3125 7.68281 11.9934C7.86843 12.442 8.14172 12.8236 8.47172 13.1381C9.01828 11.0911 10.5291 9.43593 12.4833 8.68312C12.5245 8.4614 12.5761 8.25 12.638 8.03859V8.03859ZM14.3034 21.6562C13.7362 21.2747 12.968 21.4294 12.5864 22.0017L10.9364 24.4767C10.5548 25.0439 10.7095 25.8122 11.2819 26.1937C11.8542 26.5753 12.6173 26.4206 12.9989 25.8483L14.6489 23.3733C15.0305 22.8061 14.8758 22.0378 14.3034 21.6562ZM19.2534 21.6562C18.6862 21.2747 17.918 21.4294 17.5364 22.0017L15.8864 24.4767C15.5048 25.0439 15.6595 25.8122 16.2319 26.1937C16.8042 26.5753 17.5673 26.4206 17.9489 25.8483L19.5989 23.3733C19.9805 22.8061 19.8258 22.0378 19.2534 21.6562ZM24.2034 21.6562C23.6362 21.2747 22.868 21.4294 22.4864 22.0017L20.8364 24.4767C20.4548 25.0439 20.6095 25.8122 21.1819 26.1937C21.7542 26.5753 22.5173 26.4206 22.8989 25.8483L24.5489 23.3733C24.9305 22.8061 24.7758 22.0378 24.2034 21.6562ZM29.1534 21.6562C28.5862 21.2747 27.818 21.4294 27.4364 22.0017L25.7864 24.4767C25.4048 25.0439 25.5595 25.8122 26.1319 26.1937C26.7042 26.5753 27.4673 26.4206 27.8489 25.8483L29.4989 23.3733C29.8805 22.8061 29.7258 22.0378 29.1534 21.6562ZM32.9948 15.6698C32.9948 13.6434 31.5305 11.9522 29.602 11.6119C29.6639 11.3231 29.7 11.0292 29.7 10.725C29.7 8.44593 27.8541 6.6 25.575 6.6C24.6984 6.6 23.8837 6.87328 23.2134 7.3425C22.342 5.90906 20.7694 4.95 18.975 4.95C16.2422 4.95 14.025 7.16718 14.025 9.9V9.96703C11.6841 10.3589 9.9 12.3956 9.9 14.8448C9.9 17.5777 12.1172 19.7948 14.85 19.7948H28.8698C31.1489 19.7948 32.9948 17.9489 32.9948 15.6698Z" fill="#DEE0E4"/>
</g>
<defs>
<clipPath id="clip0_6_51">
<rect width="33" height="26.4" fill="white"/>
</clipPath>
</defs>
</svg>
