<svg width="23" height="33" viewBox="0 0 23 33" fill="none" xmlns="http://www.w3.org/2000/svg">
<path d="M11.5 33C5.15104 33 0 27.457 0 20.625C0 14.7469 7.79844 3.71895 9.97865 0.754102C10.338 0.270703 10.8711 0 11.4461 0H11.5539C12.1289 0 12.662 0.270703 13.0214 0.754102C15.2016 3.71895 23 14.7469 23 20.625C23 27.457 17.849 33 11.5 33ZM5.75 21.6562C5.75 21.0891 5.31875 20.625 4.79167 20.625C4.26458 20.625 3.83333 21.0891 3.83333 21.6562C3.83333 25.6459 6.83411 28.875 10.5417 28.875C11.0687 28.875 11.5 28.4109 11.5 27.8438C11.5 27.2766 11.0687 26.8125 10.5417 26.8125C7.89427 26.8125 5.75 24.5051 5.75 21.6562Z" fill="#9399A2"/>
</svg>
