<svg width="23" height="40" viewBox="0 0 23 40" fill="none" xmlns="http://www.w3.org/2000/svg">
<path d="M11.5 5C9.59534 5 8.05002 6.67969 8.05002 8.75V21.6016C8.05002 22.9531 7.53971 24.0937 6.95034 24.9219C6.19565 25.9844 5.75002 27.3047 5.75002 28.75C5.75002 32.2031 8.32315 35 11.5 35C14.6769 35 17.25 32.2031 17.25 28.75C17.25 27.3047 16.8044 25.9844 16.0497 24.9297C15.4603 24.1016 14.95 22.9609 14.95 21.6094V8.75C14.95 6.67969 13.4047 5 11.5 5ZM3.45002 8.75C3.45002 3.92188 7.05096 0 11.5 0C15.9491 0 19.55 3.91406 19.55 8.75V21.6016C19.55 21.6094 19.5572 21.625 19.5644 21.6484C19.5788 21.6953 19.6219 21.7734 19.6866 21.8672C21.045 23.7734 21.85 26.1641 21.85 28.75C21.85 34.9609 17.2141 40 11.5 40C5.78596 40 1.15002 34.9609 1.15002 28.75C1.15002 26.1562 1.95502 23.7656 3.31346 21.8672C3.37815 21.7734 3.42127 21.6953 3.43565 21.6484C3.44284 21.625 3.45002 21.6094 3.45002 21.6016V8.75V8.75ZM14.95 28.75C14.95 30.8203 13.4047 32.5 11.5 32.5C9.59534 32.5 8.05002 30.8203 8.05002 28.75C8.05002 27.1172 9.01315 25.7266 10.35 25.2109V15.625C10.35 14.9375 10.8675 14.375 11.5 14.375C12.1325 14.375 12.65 14.9375 12.65 15.625V25.2109C13.9869 25.7266 14.95 27.1172 14.95 28.75Z" fill="#9399A2"/>
</svg>
