<svg width="33" height="33" viewBox="0 0 33 33" fill="current" xmlns="http://www.w3.org/2000/svg">
<path d="M4.125 9.28125C5.83301 9.28125 7.21875 7.89551 7.21875 6.1875C7.21875 4.47949 5.83301 3.09375 4.125 3.09375C2.41699 3.09375 1.03125 4.47949 1.03125 6.1875C1.03125 7.89551 2.41699 9.28125 4.125 9.28125ZM12.375 4.125C11.2342 4.125 10.3125 5.04668 10.3125 6.1875C10.3125 7.32832 11.2342 8.25 12.375 8.25H30.9375C32.0783 8.25 33 7.32832 33 6.1875C33 5.04668 32.0783 4.125 30.9375 4.125H12.375ZM12.375 14.4375C11.2342 14.4375 10.3125 15.3592 10.3125 16.5C10.3125 17.6408 11.2342 18.5625 12.375 18.5625H30.9375C32.0783 18.5625 33 17.6408 33 16.5C33 15.3592 32.0783 14.4375 30.9375 14.4375H12.375ZM12.375 24.75C11.2342 24.75 10.3125 25.6717 10.3125 26.8125C10.3125 27.9533 11.2342 28.875 12.375 28.875H30.9375C32.0783 28.875 33 27.9533 33 26.8125C33 25.6717 32.0783 24.75 30.9375 24.75H12.375ZM4.125 29.9062C5.83301 29.9062 7.21875 28.5205 7.21875 26.8125C7.21875 25.1045 5.83301 23.7188 4.125 23.7188C2.41699 23.7188 1.03125 25.1045 1.03125 26.8125C1.03125 28.5205 2.41699 29.9062 4.125 29.9062ZM7.21875 16.5C7.21875 14.792 5.83301 13.4062 4.125 13.4062C2.41699 13.4062 1.03125 14.792 1.03125 16.5C1.03125 18.208 2.41699 19.5938 4.125 19.5938C5.83301 19.5938 7.21875 18.208 7.21875 16.5Z" fill="current"/>
</svg>
