<svg width="30" height="30" viewBox="0 0 30 30" fill="none" xmlns="http://www.w3.org/2000/svg">
<g clip-path="url(#clip0_106_35)">
<path d="M13.4697 0.371987C10.8993 0.644987 8.2449 1.69559 6.123 3.28559C5.4507 3.79679 4.2741 4.92449 3.6858 5.62469C2.6352 6.88529 1.5498 8.83949 1.0314 10.4082C-0.145496 13.98 0.106805 17.9022 1.7247 21.2709C3.1953 24.3315 5.4156 26.6007 8.427 28.1346C11.8869 29.8926 15.8649 30.1797 19.6329 28.9401C24.0102 27.4974 27.498 24.0096 28.9479 19.6254C30.5307 14.8209 29.5854 9.67319 26.3985 5.72309C24.3324 3.16649 21.1878 1.25459 17.994 0.610185C16.4673 0.308985 14.9124 0.224987 13.4697 0.371987ZM16.2501 3.10349C19.8711 3.49559 23.0718 5.46359 25.0326 8.48939C27.7149 12.6216 27.603 17.9022 24.7524 21.9363C24.15 22.7907 22.7913 24.1494 21.9369 24.7518C19.5555 26.4396 16.593 27.2169 13.7568 26.9019C8.11201 26.2854 3.7206 21.8943 3.1044 16.2492C2.6139 11.823 4.722 7.41059 8.49 4.96649C10.8012 3.46769 13.5606 2.80919 16.2501 3.10349Z" fill="#9399A2"/>
<path d="M14.5131 5.9331V7.0188H15.0033H15.4935V5.9331V4.8474H15.0033H14.5131V5.9331Z" fill="#9399A2"/>
<path d="M9.91175 6.17818C9.70865 6.29728 9.54065 6.42328 9.54065 6.46528C9.54065 6.53518 9.83495 7.06768 10.3599 7.94308L10.5981 8.34238L10.9974 8.10418C11.2146 7.97098 11.3895 7.82398 11.3757 7.77508C11.3406 7.62808 10.3671 5.96818 10.3182 5.96818C10.2969 5.96788 10.1079 6.06598 9.91175 6.17818Z" fill="#9399A2"/>
<path d="M19.1496 6.82228C18.8763 7.29838 18.6453 7.72588 18.6312 7.77478C18.6171 7.82368 18.7854 7.97098 18.9954 8.10388C19.3527 8.32798 19.3875 8.33488 19.4715 8.22298C19.6326 8.01298 20.466 6.53518 20.466 6.46498C20.466 6.39478 19.794 5.96788 19.689 5.96788C19.6608 5.96788 19.4226 6.35308 19.1496 6.82228Z" fill="#9399A2"/>
<path d="M6.17875 9.90388C6.06655 10.107 5.96875 10.296 5.96875 10.317C5.96875 10.3659 7.62865 11.3394 7.77565 11.3745C7.82455 11.3886 7.97185 11.2134 8.10475 10.9962L8.34295 10.5969L7.94365 10.3587C7.06825 9.83338 6.53605 9.53938 6.46585 9.53938C6.42385 9.53968 6.29785 9.70798 6.17875 9.90388Z" fill="#9399A2"/>
<path d="M22.5675 10.065C22.0842 10.3452 21.699 10.6113 21.7062 10.6533C21.7413 10.7934 22.1613 11.4306 22.2033 11.4096C22.7496 11.1153 24.0381 10.3521 24.0381 10.317C24.0381 10.1979 23.604 9.53969 23.5269 9.53969C23.4849 9.54689 23.0508 9.77789 22.5675 10.065Z" fill="#9399A2"/>
<path d="M11.0814 9.89699C11.0814 9.94589 11.4105 11.3466 11.8167 13.0137C12.2229 14.6874 12.552 16.0953 12.552 16.1442C12.552 16.2003 12.489 16.3824 12.4188 16.5576C12.2088 17.0199 12.1596 17.6853 12.2997 18.2244C12.846 20.3466 15.4302 21.0681 16.9641 19.5342C18.0357 18.4626 18.0567 16.7886 17.0202 15.6612C16.6914 15.3108 15.921 14.8905 15.4518 14.8206L15.1368 14.7786L13.3089 12.5235C11.1375 9.85499 11.0814 9.79199 11.0814 9.89699Z" fill="#9399A2"/>
<path d="M4.84827 15.0027V15.4929H5.93397H7.01967V15.0027V14.5125H5.93397H4.84827V15.0027Z" fill="#9399A2"/>
<path d="M22.9875 15.0027V15.4929H24.0729H25.1586V15.0027V14.5125H24.0729H22.9875V15.0027V15.0027Z" fill="#9399A2"/>
<path d="M5.12817 17.5521C5.12817 17.6853 5.68857 19.1349 5.91267 19.5831C6.85107 21.4602 8.55297 23.1549 10.4511 24.1074C11.1234 24.4437 12.2019 24.822 12.9723 24.99C13.8267 25.179 16.1799 25.179 17.0343 24.99C19.0374 24.5559 20.7603 23.6172 22.182 22.1886C23.4426 20.928 24.276 19.5342 24.7593 17.8884L24.8715 17.5242H22.1751H19.4856V17.8956C19.4856 18.3999 19.3245 18.9951 19.0164 19.6254C18.8202 20.0247 18.6171 20.2908 18.162 20.7459C17.2305 21.6705 16.278 22.0767 15.0033 22.0767C13.7427 22.0767 12.7761 21.6705 11.8446 20.7459C11.3754 20.2836 11.1864 20.0316 10.9902 19.6254C10.6821 18.9951 10.521 18.3999 10.521 17.8956V17.5242H7.82457C6.33987 17.5239 5.12817 17.538 5.12817 17.5521Z" fill="#9399A2"/>
</g>
<defs>
<clipPath id="clip0_106_35">
<rect width="30" height="30" fill="white"/>
</clipPath>
</defs>
</svg>
