<svg width="30" height="30" viewBox="0 0 30 30" fill="none" xmlns="http://www.w3.org/2000/svg">
<g clip-path="url(#clip0_107_58)">
<path d="M14.6376 0.368116C14.4018 0.471616 14.1603 0.764715 14.1201 0.994815C14.103 1.09832 14.0913 2.08712 14.103 3.20252C14.1201 5.13992 14.1261 5.23202 14.241 5.38142C14.4651 5.68622 14.6493 5.77802 15.0114 5.77802C15.3735 5.77802 15.5574 5.68592 15.7818 5.38142C15.8967 5.22632 15.9024 5.15731 15.9024 3.04741C15.9024 0.937515 15.8967 0.868515 15.7818 0.713415C15.7185 0.627315 15.5979 0.500716 15.5172 0.443116C15.3273 0.299116 14.8674 0.258916 14.6376 0.368116Z" fill="#9399A2"/>
<path d="M4.86417 4.3926C4.47897 4.5594 4.26057 4.9962 4.34667 5.4447C4.37547 5.6343 4.59387 5.8758 5.91627 7.1982C7.57197 8.8539 7.58937 8.86531 8.09517 8.76781C8.37687 8.71621 8.72187 8.3712 8.77347 8.0895C8.87127 7.5894 8.85387 7.5606 7.26147 5.9565C6.45087 5.1402 5.70357 4.4388 5.60007 4.3926C5.36997 4.2948 5.08827 4.2948 4.86417 4.3926Z" fill="#9399A2"/>
<path d="M24.411 4.39261C24.3189 4.43851 23.5716 5.13991 22.761 5.95651C21.1686 7.56061 21.1512 7.58911 21.249 8.08951C21.3009 8.37121 21.6456 8.71621 21.9273 8.76781C22.4331 8.86561 22.4505 8.84821 24.0774 7.22701C25.1352 6.17491 25.6065 5.66341 25.6527 5.53111C25.7793 5.14021 25.6413 4.72621 25.2906 4.46761C25.095 4.32361 24.6408 4.28341 24.411 4.39261Z" fill="#9399A2"/>
<path d="M14.0052 6.7899C11.3031 7.152 8.83081 8.94 7.59481 11.4237C7.06591 12.4929 6.80731 13.482 6.74971 14.6892C6.68641 15.9771 6.91651 17.0694 7.57771 18.6099C7.60081 18.6675 6.87061 18.6846 4.24321 18.6963C0.94321 18.7134 0.87421 18.7134 0.71911 18.8343C0.41431 19.0584 0.32251 19.2426 0.32251 19.6047C0.32251 19.9668 0.41461 20.151 0.71911 20.3751L0.87421 20.4957H15.0111H29.148L29.3031 20.3751C29.6079 20.151 29.6997 19.9668 29.6997 19.6047C29.6997 19.2426 29.6076 19.0584 29.3031 18.8343C29.148 18.7134 29.079 18.7134 25.7847 18.6963C23.9391 18.6906 22.4274 18.6732 22.4274 18.6675C22.4274 18.6618 22.5195 18.4374 22.6287 18.1731C23.8533 15.2757 23.3244 12.0906 21.2145 9.6129C20.0703 8.2677 18.2538 7.2099 16.5003 6.8706C15.9195 6.7554 14.5629 6.7095 14.0052 6.7899ZM15.9138 8.6295C17.0865 8.7846 18.294 9.2907 19.1505 9.9864C21.6054 11.9871 22.1745 15.7182 20.4384 18.4662L20.3004 18.6846H15.0114H9.72241L9.56731 18.4374C9.00391 17.5464 8.64751 16.4196 8.58991 15.3501C8.53231 14.1486 8.73361 13.131 9.26251 12.0444C9.88921 10.7508 10.7631 9.8829 12.0507 9.2562C12.4302 9.0723 12.9072 8.8767 13.1142 8.8251C14.0052 8.5836 15.0456 8.5089 15.9138 8.6295Z" fill="#9399A2"/>
<path d="M0.839689 14.166C0.454489 14.3325 0.236089 14.7753 0.316489 15.2064C0.368089 15.4767 0.655789 15.7929 0.914389 15.8676C1.05239 15.9078 1.83419 15.9252 3.17939 15.9135C5.14559 15.8961 5.23739 15.8904 5.38709 15.7755C5.69189 15.5514 5.78399 15.3675 5.78399 15.0054C5.78399 14.6433 5.69189 14.4591 5.38739 14.235C5.23799 14.1201 5.15159 14.1144 3.12239 14.1027C1.45499 14.0913 0.977689 14.1027 0.839689 14.166Z" fill="#9399A2"/>
<path d="M24.7557 14.166C24.3705 14.3328 24.1521 14.7753 24.2325 15.2064C24.2841 15.4767 24.5718 15.7929 24.8304 15.8676C24.9684 15.9078 25.7502 15.9252 27.0954 15.9135C29.0616 15.8961 29.1537 15.8904 29.3031 15.7755C29.6079 15.5514 29.7 15.3675 29.7 15.0054C29.7 14.6433 29.6079 14.4591 29.3034 14.235C29.154 14.1201 29.0676 14.1144 27.0384 14.1027C25.371 14.0913 24.8937 14.1027 24.7557 14.166Z" fill="#9399A2"/>
<path d="M14.5799 22.4733C14.4878 22.5309 13.7291 23.2608 12.9011 24.0945C11.2799 25.7331 11.2625 25.7502 11.3603 26.2563C11.4119 26.538 11.7569 26.883 12.0386 26.9346C12.4928 27.021 12.6308 26.946 13.3838 26.2044L14.0852 25.5087L14.1026 27.3255C14.1197 29.0559 14.1257 29.148 14.2406 29.2974C14.4647 29.6022 14.6489 29.694 15.011 29.694C15.3731 29.694 15.557 29.6019 15.7814 29.2974C15.8963 29.148 15.902 29.0559 15.9194 27.3255L15.9365 25.5087L16.6379 26.2044C17.3912 26.946 17.5289 27.0207 17.9831 26.9346C18.2648 26.883 18.6098 26.538 18.6614 26.2563C18.7592 25.7505 18.7475 25.7331 17.0918 24.0717C16.2467 23.2209 15.4877 22.4907 15.4016 22.4448C15.1835 22.3296 14.7869 22.341 14.5799 22.4733Z" fill="#9399A2"/>
</g>
<defs>
<clipPath id="clip0_107_58">
<rect width="30" height="30" fill="white"/>
</clipPath>
</defs>
</svg>
