<svg width="23" height="25" viewBox="0 0 23 25" fill="none" xmlns="http://www.w3.org/2000/svg">
<g clip-path="url(#clip0_8_114)">
<path d="M12.9375 1.5625C12.9375 2.42676 13.5799 3.125 14.375 3.125H15.8125C16.6076 3.125 17.25 3.82324 17.25 4.6875C17.25 5.55176 16.6076 6.25 15.8125 6.25H1.4375C0.642383 6.25 0 6.94824 0 7.8125C0 8.67676 0.642383 9.375 1.4375 9.375H15.8125C18.1934 9.375 20.125 7.27539 20.125 4.6875C20.125 2.09961 18.1934 0 15.8125 0H14.375C13.5799 0 12.9375 0.698242 12.9375 1.5625ZM15.8125 18.75C15.8125 19.6143 16.4549 20.3125 17.25 20.3125H18.6875C21.0684 20.3125 23 18.2129 23 15.625C23 13.0371 21.0684 10.9375 18.6875 10.9375H1.4375C0.642383 10.9375 0 11.6357 0 12.5C0 13.3643 0.642383 14.0625 1.4375 14.0625H18.6875C19.4826 14.0625 20.125 14.7607 20.125 15.625C20.125 16.4893 19.4826 17.1875 18.6875 17.1875H17.25C16.4549 17.1875 15.8125 17.8857 15.8125 18.75ZM5.75 25H7.1875C9.56836 25 11.5 22.9004 11.5 20.3125C11.5 17.7246 9.56836 15.625 7.1875 15.625H1.4375C0.642383 15.625 0 16.3232 0 17.1875C0 18.0518 0.642383 18.75 1.4375 18.75H7.1875C7.98262 18.75 8.625 19.4482 8.625 20.3125C8.625 21.1768 7.98262 21.875 7.1875 21.875H5.75C4.95488 21.875 4.3125 22.5732 4.3125 23.4375C4.3125 24.3018 4.95488 25 5.75 25Z" fill="#9399A2"/>
</g>
<defs>
<clipPath id="clip0_8_114">
<rect width="23" height="25" fill="white"/>
</clipPath>
</defs>
</svg>
