<svg width="23" height="25" viewBox="0 0 23 25" fill="none" xmlns="http://www.w3.org/2000/svg">
<g clip-path="url(#clip0_8_119)">
<path d="M16.2391 0.058601C16.4637 0.16114 16.6254 0.380867 16.6703 0.639656L17.5643 5.90821L22.4114 6.87501C22.6494 6.92384 22.8516 7.09962 22.9459 7.34376C23.0403 7.5879 23.0133 7.86622 22.874 8.08594L20.0754 12.5L22.874 16.9092C23.0133 17.1289 23.0403 17.4072 22.9459 17.6514C22.8516 17.8955 22.6494 18.0713 22.4114 18.1201L17.5643 19.0918L16.6703 24.3604C16.6254 24.6191 16.4637 24.8389 16.2391 24.9414C16.0145 25.044 15.7584 25.0147 15.5563 24.8633L11.4998 21.8213L7.44339 24.8633C7.24124 25.0147 6.98518 25.044 6.76057 24.9414C6.53596 24.8389 6.37425 24.6191 6.32932 24.3604L5.43538 19.0918L0.588309 18.1201C0.350223 18.0713 0.148074 17.8955 0.0537384 17.6514C-0.0405975 17.4072 -0.0136444 17.1289 0.125613 16.9092L2.92425 12.5L0.125613 8.09083C-0.0136444 7.8711 -0.0405975 7.59278 0.0537384 7.34864C0.148074 7.1045 0.350223 6.92872 0.588309 6.87989L5.43538 5.90821L6.32932 0.639656C6.37425 0.380867 6.53596 0.16114 6.76057 0.058601C6.98518 -0.043938 7.24124 -0.0146411 7.44339 0.136726L11.4998 3.17872L15.5563 0.136726C15.7584 -0.0146411 16.0145 -0.043938 16.2391 0.058601V0.058601ZM15.8123 12.5C15.8123 15.0879 13.8807 17.1875 11.4998 17.1875C9.11897 17.1875 7.18733 15.0879 7.18733 12.5C7.18733 9.91212 9.11897 7.81251 11.4998 7.81251C13.8807 7.81251 15.8123 9.91212 15.8123 12.5ZM17.2498 12.5C17.2498 9.04786 14.6758 6.25001 11.4998 6.25001C8.32385 6.25001 5.74983 9.04786 5.74983 12.5C5.74983 15.9522 8.32385 18.75 11.4998 18.75C14.6758 18.75 17.2498 15.9522 17.2498 12.5Z" fill="#9399A2"/>
</g>
<defs>
<clipPath id="clip0_8_119">
<rect width="23" height="25" fill="white"/>
</clipPath>
</defs>
</svg>
