<svg width="30" height="30" viewBox="0 0 30 30" fill="none" xmlns="http://www.w3.org/2000/svg">
<g clip-path="url(#clip0_108_68)">
<path d="M14.6376 0.355206C14.4018 0.458706 14.1603 0.751806 14.1201 0.981906C14.103 1.08541 14.0913 2.07421 14.103 3.18961C14.1201 5.12701 14.1261 5.21911 14.241 5.36851C14.4651 5.67331 14.6493 5.76511 15.0114 5.76511C15.3735 5.76511 15.5574 5.67301 15.7818 5.36851C15.8967 5.21341 15.9024 5.14441 15.9024 3.03451C15.9024 0.924606 15.8967 0.855606 15.7818 0.700506C15.7185 0.614406 15.5979 0.487806 15.5172 0.430206C15.3273 0.286206 14.8674 0.246006 14.6376 0.355206Z" fill="#9399A2"/>
<path d="M4.86417 4.3797C4.47897 4.5465 4.26057 4.9833 4.34667 5.4318C4.37547 5.6214 4.59387 5.8629 5.91627 7.1853C7.57197 8.841 7.58937 8.8524 8.09517 8.7549C8.37687 8.7033 8.72187 8.3583 8.77347 8.0766C8.87127 7.5765 8.85387 7.5477 7.26147 5.9436C6.45087 5.1273 5.70357 4.4259 5.60007 4.3797C5.36997 4.2819 5.08827 4.2819 4.86417 4.3797Z" fill="#9399A2"/>
<path d="M24.411 4.3797C24.3189 4.4256 23.5716 5.127 22.761 5.9436C21.1686 7.5477 21.1512 7.5762 21.249 8.0766C21.3009 8.3583 21.6456 8.7033 21.9273 8.7549C22.4331 8.8527 22.4505 8.8353 24.0774 7.2141C25.1352 6.162 25.6065 5.6505 25.6527 5.5182C25.7793 5.1273 25.6413 4.7133 25.2906 4.4547C25.095 4.3107 24.6408 4.2705 24.411 4.3797Z" fill="#9399A2"/>
<path d="M14.0052 6.77699C11.3031 7.13909 8.83111 8.92709 7.59511 11.4108C7.06591 12.48 6.80731 13.4688 6.74971 14.6763C6.68641 15.9642 6.91651 17.0565 7.57771 18.597C7.60081 18.6546 6.87061 18.6717 4.24321 18.6834C0.94321 18.7005 0.87421 18.7005 0.71911 18.8214C0.41431 19.0455 0.32251 19.2297 0.32251 19.5918C0.32251 19.9539 0.41461 20.1381 0.71911 20.3622L0.87421 20.4828H15.0111H29.148L29.3031 20.3622C29.6079 20.1381 29.6997 19.9539 29.6997 19.5918C29.6997 19.2297 29.6076 19.0455 29.3031 18.8214C29.148 18.7005 29.079 18.7005 25.7847 18.6834C23.9391 18.6777 22.4274 18.6603 22.4274 18.6546C22.4274 18.6489 22.5195 18.4245 22.6287 18.1602C23.8533 15.2628 23.3244 12.0777 21.2145 9.59999C20.0703 8.25479 18.2538 7.19699 16.5003 6.85769C15.9195 6.74249 14.5629 6.69659 14.0052 6.77699ZM15.9138 8.61659C17.0865 8.77169 18.294 9.27779 19.1505 9.97349C21.6054 11.9742 22.1745 15.7053 20.4384 18.4533L20.3004 18.6717H15.0114H9.72241L9.56731 18.4245C9.00391 17.5335 8.64751 16.4067 8.58991 15.3372C8.53231 14.1357 8.73361 13.1181 9.26251 12.0315C9.88921 10.7379 10.7631 9.86999 12.0507 9.24329C12.4302 9.05939 12.9072 8.86379 13.1142 8.81219C14.0052 8.57069 15.0456 8.49599 15.9138 8.61659Z" fill="#9399A2"/>
<path d="M0.839689 14.1531C0.454489 14.3196 0.236089 14.7624 0.316489 15.1935C0.368389 15.4638 0.655789 15.78 0.914389 15.8547C1.05239 15.8949 1.83419 15.9123 3.17939 15.9006C5.14559 15.8835 5.23739 15.8778 5.38709 15.7626C5.69189 15.5385 5.78399 15.3546 5.78399 14.9925C5.78399 14.6304 5.69189 14.4462 5.38739 14.2221C5.23799 14.1072 5.15159 14.1015 3.12239 14.0898C1.45499 14.0784 0.977689 14.0898 0.839689 14.1531Z" fill="#9399A2"/>
<path d="M24.7557 14.1531C24.3705 14.3199 24.1521 14.7624 24.2325 15.1938C24.2841 15.4641 24.5718 15.7803 24.8304 15.855C24.9684 15.8952 25.7502 15.9126 27.0954 15.9009C29.0616 15.8838 29.1537 15.8781 29.3031 15.7629C29.6079 15.5385 29.7 15.3546 29.7 14.9925C29.7 14.6304 29.6079 14.4462 29.3034 14.2221C29.154 14.1072 29.0676 14.1015 27.0384 14.0898C25.371 14.0784 24.8937 14.0898 24.7557 14.1531Z" fill="#9399A2"/>
<path d="M14.6375 22.4316C14.4248 22.5294 14.2352 22.7304 14.1545 22.9431C14.1143 23.0466 14.0912 23.748 14.0912 24.8403V26.571L13.3898 25.8753C12.6308 25.128 12.4931 25.0533 12.0389 25.1394C11.7572 25.1913 11.4122 25.536 11.3606 25.8177C11.2628 26.3235 11.2745 26.3409 12.9302 28.0023C13.7753 28.8531 14.5343 29.5833 14.6204 29.6292C14.8217 29.7327 15.2009 29.7327 15.4022 29.6292C15.4883 29.5833 16.2473 28.8531 17.0924 28.0023C18.7481 26.3409 18.7595 26.3235 18.662 25.8177C18.6101 25.536 18.2654 25.191 17.9837 25.1394C17.5295 25.0533 17.3915 25.128 16.6385 25.8696L15.9371 26.5653L15.92 24.7485C15.9026 23.0181 15.8969 22.926 15.782 22.7766C15.7187 22.6902 15.5981 22.5639 15.5174 22.5063C15.3215 22.3626 14.8673 22.3224 14.6375 22.4316Z" fill="#9399A2"/>
</g>
<defs>
<clipPath id="clip0_108_68">
<rect width="30" height="30" fill="white"/>
</clipPath>
</defs>
</svg>
